<?xml version="1.0" encoding="utf-8"?>
<!-- Generator: Adobe Illustrator 19.0.0, SVG Export Plug-In . SVG Version: 6.00 Build 0)  -->
<svg version="1.1" id="Layer_1" xmlns="http://www.w3.org/2000/svg" xmlns:xlink="http://www.w3.org/1999/xlink" x="0px" y="0px"
	 viewBox="-215.7 214.9 253.7 113.3" style="enable-background:new -215.7 214.9 253.7 113.3;" xml:space="preserve">
<style type="text/css">
	.st0{clip-path:url(#SVGID_2_);}
	.st1{clip-path:url(#SVGID_4_);}
	.st2{fill:#230707;}
	.st3{font-family:'Montserrat-Bold';}
	.st4{font-size:20.0571px;}
	.st5{clip-path:url(#SVGID_6_);}
	.st6{fill:#E6561F;}
	.st7{font-family:'OpenSans';}
	.st8{font-size:10.0285px;}
</style>
<g id="logo.psd">
	<g>
		<g>
			<g>
				<g>
					<defs>
						<rect id="SVGID_1_" x="-290" y="190.9" width="377.5" height="181.1"/>
					</defs>
					<clipPath id="SVGID_2_">
						<use xlink:href="#SVGID_1_"  style="overflow:visible;"/>
					</clipPath>
					<g class="st0">
						
							<image style="overflow:visible;enable-background:new    ;" width="727" height="301" id="Layer_1_2_" xlink:href="EE923BB3.png"  transform="matrix(0.2791 0 0 0.2754 -201.8474 215.3301)">
						</image>
					</g>
				</g>
			</g>
		</g>
	</g>
	<g>
		<g>
			<g>
				<g>
					<defs>
						<rect id="SVGID_3_" x="-290" y="190.9" width="377.5" height="181.1"/>
					</defs>
					<clipPath id="SVGID_4_">
						<use xlink:href="#SVGID_3_"  style="overflow:visible;"/>
					</clipPath>
					<g id="XMLID_35_" class="st1">
						<text transform="matrix(1 0 0 1 -214.9857 314.2562)" class="st2 st3 st4">T</text>
						<text transform="matrix(1 0 0 1 -202.5523 314.2562)" class="st2 st3 st4">he </text>
						<text transform="matrix(1 0 0 1 -174.0523 314.2562)" class="st2 st3 st4">Y</text>
						<text transform="matrix(1 0 0 1 -160.9524 314.2562)" class="st2 st3 st4">or</text>
						<text transform="matrix(1 0 0 1 -139.019 314.2562)" class="st2 st3 st4">k</text>
						<text transform="matrix(1 0 0 1 -125.6856 314.2562)" class="st2 st3 st4">shire </text>
						<text transform="matrix(1 0 0 1 -69.319 314.2562)" class="st2 st3 st4">C</text>
						<text transform="matrix(1 0 0 1 -53.019 314.2562)" class="st2 st3 st4">a</text>
						<text transform="matrix(1 0 0 1 -38.319 314.2562)" class="st2 st3 st4">k</text>
						<text transform="matrix(1 0 0 1 -23.619 314.2562)" class="st2 st3 st4">e Man</text>
					</g>
				</g>
			</g>
		</g>
	</g>
	<g>
		<g>
			<g>
				<g>
					<defs>
						<rect id="SVGID_5_" x="-290" y="190.9" width="377.5" height="181.1"/>
					</defs>
					<clipPath id="SVGID_6_">
						<use xlink:href="#SVGID_5_"  style="overflow:visible;"/>
					</clipPath>
					<g id="XMLID_34_" class="st5">
						<text transform="matrix(1 0 0 1 -138.6097 325.6999)" class="st6 st7 st8">Bespoke Cake Maker</text>
					</g>
				</g>
			</g>
		</g>
	</g>
</g>
</svg>
